# xmcd
#
# Track frame offsets: 
#        150
#        21932
#        54577
#        67497
#        114245
#        164795
#        227945
#
# Disc length: 4317 seconds
#
# Revision: 7
# Processed by: cddbd v1.5.2PL0 Copyright (c) Steve Scherf et al.
# Submitted via: ExactAudioCopyFreeDBPlugin 1.0
#
DISCID=6610db07
DTITLE=Bessie Smith - Empress of the Blues:  The Complete Recordings [
DTITLE=Columbia-Legacy Roots n' Blues box set]
DYEAR=1996
DGENRE=Blues
TTITLE0=Ruby Smith Dialogue - An Interview with Chris Albertson:  Bess
TTITLE0=ie Disappears
TTITLE1=Ruby Smith Dialogue - An Interview with Chris Albertson:  Wald
TTITLE1=orf-Astoria Party
TTITLE2=Ruby Smith Dialogue - An Interview with Chris Albertson:  Bess
TTITLE2=ie and Jack, Part I
TTITLE3=Ruby Smith Dialogue - An Interview with Chris Albertson:  Bess
TTITLE3=ie and Jack, Part II - Bessie and The Ladies
TTITLE4=Ruby Smith Dialogue - An Interview with Chris Albertson:  Life
TTITLE4=on the Road, Part I
TTITLE5=Ruby Smith Dialogue - An Interview with Chris Albertson:  Life
TTITLE5=on the Road, Part II
TTITLE6=Ruby Smith Dialogue - An Interview with Chris Albertson:  Life
TTITLE6=on the Road, Part III - Bessie and Gertrude Saunders
EXTD=
EXTT0=
EXTT1=
EXTT2=
EXTT3=
EXTT4=
EXTT5=
EXTT6=
PLAYORDER=
